<?xml version="1.0" encoding="UTF-8"?>
<svg version="1.1" viewBox="0 0 2048 1940" width="1280" height="1280" xmlns="http://www.w3.org/2000/svg">
<path transform="translate(0)" d="m0 0h2048v1940h-2048z" fill="#64D2A5"/>
<path transform="translate(757,320)" d="m0 0h543l39 1 21 2 4 6 1 3 1 189v126l4-1 191 1 69 1 42 1 15 2 5 4 1 6 1 75 1 117v233l-2 217-9 2-263 1-55 1v116l-1 127-1 82-3 1h-615l-32-1-5-2-1-2-1-127-1-44-1-150-24-1-183-1-116-1-4-4v-631l1-13 3-5 6-2 17-1 42-1h169l89 1 1-85v-61l-1-112v-61l3-5 7-2z" fill="#FEFEFE"/>
<path transform="translate(1e3 522)" d="m0 0 138 1 14 1 5 2 1 2v322h104l151 1 67 1 5 3 1 89 1 153-2 2-4 1-25 1h-245l-53 1 1 14-1 308-2 3-195 1h-49l-2-2-1-38-1-158v-106l1-23-327-1-2-1v-210l1-31 2-5 5-2h319l1-172 1-101 1-40 1-10 2-4 4-1z" fill="#FEFEFE"/>
<path transform="translate(860,445)" d="m0 0h178l197 1 2 2 1 261v63l213 1 114 1v374l-1 29-7 1h-227l-82 1-8 1-1 7-1 39-3 280-86 1-212-1-103-1-1-1v-165l-1-146-1-12-4-1-20-1-145-1h-157l-1-1 1-69 1-333 2-1 65-1 257-1 2-1v-79l1-245 3-1zm142 77-83 1-4 1-2 4-1 10-1 40-1 101-1 172h-319l-5 2-2 5-1 31v210l2 1 327 1-1 23v106l1 158 1 38 2 2h49l195-1 2-3 1-313-1-9 53-1h245l25-1 5-2 1-1-1-153-1-89-5-3-67-1-151-1h-104v-322l-2-3-4-1-14-1z" fill="#64D2A5"/>
</svg>
